<svg xmlns="http://www.w3.org/2000/svg" xmlns:xlink="http://www.w3.org/1999/xlink" width="794" zoomAndPan="magnify" viewBox="0 0 595.5 842.249979" height="1123" preserveAspectRatio="xMidYMid meet" version="1.0"><defs><clipPath id="b9413fe9bb"><path d="M 0.953125 0.5 L 179.492188 0.5 L 179.492188 33.621094 L 0.953125 33.621094 Z M 0.953125 0.5 " clip-rule="nonzero"/></clipPath><clipPath id="9f757fce7f"><path d="M 8.449219 0.5 L 171.949219 0.5 C 176.089844 0.5 179.445312 3.855469 179.445312 7.996094 L 179.445312 26.125 C 179.445312 30.261719 176.089844 33.621094 171.949219 33.621094 L 8.449219 33.621094 C 4.308594 33.621094 0.953125 30.261719 0.953125 26.125 L 0.953125 7.996094 C 0.953125 3.855469 4.308594 0.5 8.449219 0.5 Z M 8.449219 0.5 " clip-rule="nonzero"/></clipPath><clipPath id="ff269d6b64"><path d="M 0.953125 0.5 L 179.492188 0.5 L 179.492188 33.621094 L 0.953125 33.621094 Z M 0.953125 0.5 " clip-rule="nonzero"/></clipPath><clipPath id="1b539ff84d"><path d="M 8.449219 0.5 L 171.949219 0.5 C 176.089844 0.5 179.445312 3.855469 179.445312 7.996094 L 179.445312 26.125 C 179.445312 30.261719 176.089844 33.621094 171.949219 33.621094 L 8.449219 33.621094 C 4.308594 33.621094 0.953125 30.261719 0.953125 26.125 L 0.953125 7.996094 C 0.953125 3.855469 4.308594 0.5 8.449219 0.5 Z M 8.449219 0.5 " clip-rule="nonzero"/></clipPath><clipPath id="5cd7ae9e77"><rect x="0" width="180" y="0" height="34"/></clipPath><clipPath id="69446973ea"><path d="M 344.070312 0.5 L 522.605469 0.5 L 522.605469 33.621094 L 344.070312 33.621094 Z M 344.070312 0.5 " clip-rule="nonzero"/></clipPath><clipPath id="d3bc193dd8"><path d="M 351.566406 0.5 L 515.0625 0.5 C 519.203125 0.5 522.558594 3.855469 522.558594 7.996094 L 522.558594 26.125 C 522.558594 30.261719 519.203125 33.621094 515.0625 33.621094 L 351.566406 33.621094 C 347.425781 33.621094 344.070312 30.261719 344.070312 26.125 L 344.070312 7.996094 C 344.070312 3.855469 347.425781 0.5 351.566406 0.5 Z M 351.566406 0.5 " clip-rule="nonzero"/></clipPath><clipPath id="85953911fb"><path d="M 0.0703125 0.5 L 178.605469 0.5 L 178.605469 33.621094 L 0.0703125 33.621094 Z M 0.0703125 0.5 " clip-rule="nonzero"/></clipPath><clipPath id="405cf955db"><path d="M 7.566406 0.5 L 171.0625 0.5 C 175.203125 0.5 178.558594 3.855469 178.558594 7.996094 L 178.558594 26.125 C 178.558594 30.261719 175.203125 33.621094 171.0625 33.621094 L 7.566406 33.621094 C 3.425781 33.621094 0.0703125 30.261719 0.0703125 26.125 L 0.0703125 7.996094 C 0.0703125 3.855469 3.425781 0.5 7.566406 0.5 Z M 7.566406 0.5 " clip-rule="nonzero"/></clipPath><clipPath id="aeb5956965"><rect x="0" width="179" y="0" height="34"/></clipPath><clipPath id="c2749cfb73"><path d="M 529.40625 0.5 L 579.214844 0.5 L 579.214844 33.621094 L 529.40625 33.621094 Z M 529.40625 0.5 " clip-rule="nonzero"/></clipPath><clipPath id="810d6ba214"><path d="M 536.902344 0.5 L 571.632812 0.5 C 575.773438 0.5 579.128906 3.855469 579.128906 7.996094 L 579.128906 26.125 C 579.128906 30.261719 575.773438 33.621094 571.632812 33.621094 L 536.902344 33.621094 C 532.761719 33.621094 529.40625 30.261719 529.40625 26.125 L 529.40625 7.996094 C 529.40625 3.855469 532.761719 0.5 536.902344 0.5 Z M 536.902344 0.5 " clip-rule="nonzero"/></clipPath><clipPath id="2bd509eb95"><path d="M 0.40625 0.5 L 50.214844 0.5 L 50.214844 33.621094 L 0.40625 33.621094 Z M 0.40625 0.5 " clip-rule="nonzero"/></clipPath><clipPath id="36b25cce55"><path d="M 7.902344 0.5 L 42.632812 0.5 C 46.773438 0.5 50.128906 3.855469 50.128906 7.996094 L 50.128906 26.125 C 50.128906 30.261719 46.773438 33.621094 42.632812 33.621094 L 7.902344 33.621094 C 3.761719 33.621094 0.40625 30.261719 0.40625 26.125 L 0.40625 7.996094 C 0.40625 3.855469 3.761719 0.5 7.902344 0.5 Z M 7.902344 0.5 " clip-rule="nonzero"/></clipPath><clipPath id="d8bd4bc66c"><rect x="0" width="51" y="0" height="34"/></clipPath><clipPath id="56a51c4235"><path d="M 2.515625 155.566406 L 282.890625 155.566406 L 282.890625 255.257812 L 2.515625 255.257812 Z M 2.515625 155.566406 " clip-rule="nonzero"/></clipPath><clipPath id="d3fc6069e2"><path d="M 10.011719 155.566406 L 275.230469 155.566406 C 279.367188 155.566406 282.726562 158.921875 282.726562 163.0625 L 282.726562 247.761719 C 282.726562 251.898438 279.367188 255.257812 275.230469 255.257812 L 10.011719 255.257812 C 5.871094 255.257812 2.515625 251.898438 2.515625 247.761719 L 2.515625 163.0625 C 2.515625 158.921875 5.871094 155.566406 10.011719 155.566406 Z M 10.011719 155.566406 " clip-rule="nonzero"/></clipPath><clipPath id="25778a3b60"><path d="M 0.515625 0.566406 L 280.890625 0.566406 L 280.890625 100.257812 L 0.515625 100.257812 Z M 0.515625 0.566406 " clip-rule="nonzero"/></clipPath><clipPath id="fe18c952f1"><path d="M 8.011719 0.566406 L 273.230469 0.566406 C 277.367188 0.566406 280.726562 3.921875 280.726562 8.0625 L 280.726562 92.761719 C 280.726562 96.898438 277.367188 100.257812 273.230469 100.257812 L 8.011719 100.257812 C 3.871094 100.257812 0.515625 96.898438 0.515625 92.761719 L 0.515625 8.0625 C 0.515625 3.921875 3.871094 0.566406 8.011719 0.566406 Z M 8.011719 0.566406 " clip-rule="nonzero"/></clipPath><clipPath id="4647c35e0c"><rect x="0" width="281" y="0" height="101"/></clipPath><clipPath id="cd04c80ef0"><path d="M 292.320312 155.566406 L 580.484375 155.566406 L 580.484375 255.257812 L 292.320312 255.257812 Z M 292.320312 155.566406 " clip-rule="nonzero"/></clipPath><clipPath id="0198db5ac6"><path d="M 299.816406 155.566406 L 572.988281 155.566406 C 577.128906 155.566406 580.484375 158.921875 580.484375 163.0625 L 580.484375 247.761719 C 580.484375 251.898438 577.128906 255.257812 572.988281 255.257812 L 299.816406 255.257812 C 295.675781 255.257812 292.320312 251.898438 292.320312 247.761719 L 292.320312 163.0625 C 292.320312 158.921875 295.675781 155.566406 299.816406 155.566406 Z M 299.816406 155.566406 " clip-rule="nonzero"/></clipPath><clipPath id="f7534aa654"><path d="M 0.320312 0.566406 L 288.484375 0.566406 L 288.484375 100.257812 L 0.320312 100.257812 Z M 0.320312 0.566406 " clip-rule="nonzero"/></clipPath><clipPath id="8951f40691"><path d="M 7.816406 0.566406 L 280.988281 0.566406 C 285.128906 0.566406 288.484375 3.921875 288.484375 8.0625 L 288.484375 92.761719 C 288.484375 96.898438 285.128906 100.257812 280.988281 100.257812 L 7.816406 100.257812 C 3.675781 100.257812 0.320312 96.898438 0.320312 92.761719 L 0.320312 8.0625 C 0.320312 3.921875 3.675781 0.566406 7.816406 0.566406 Z M 7.816406 0.566406 " clip-rule="nonzero"/></clipPath><clipPath id="7f7834881a"><rect x="0" width="289" y="0" height="101"/></clipPath><clipPath id="845bd93145"><path d="M 2.515625 114.246094 L 184.804688 114.246094 L 184.804688 147.367188 L 2.515625 147.367188 Z M 2.515625 114.246094 " clip-rule="nonzero"/></clipPath><clipPath id="c0e354498f"><path d="M 10.011719 114.246094 L 177.304688 114.246094 C 181.445312 114.246094 184.800781 117.605469 184.800781 121.742188 L 184.800781 139.871094 C 184.800781 144.011719 181.445312 147.367188 177.304688 147.367188 L 10.011719 147.367188 C 5.871094 147.367188 2.515625 144.011719 2.515625 139.871094 L 2.515625 121.742188 C 2.515625 117.605469 5.871094 114.246094 10.011719 114.246094 Z M 10.011719 114.246094 " clip-rule="nonzero"/></clipPath><clipPath id="dd1dd6eb0d"><path d="M 0.515625 0.246094 L 182.804688 0.246094 L 182.804688 33.367188 L 0.515625 33.367188 Z M 0.515625 0.246094 " clip-rule="nonzero"/></clipPath><clipPath id="7c8dda02d3"><path d="M 8.011719 0.246094 L 175.304688 0.246094 C 179.445312 0.246094 182.800781 3.605469 182.800781 7.742188 L 182.800781 25.871094 C 182.800781 30.011719 179.445312 33.367188 175.304688 33.367188 L 8.011719 33.367188 C 3.871094 33.367188 0.515625 30.011719 0.515625 25.871094 L 0.515625 7.742188 C 0.515625 3.605469 3.871094 0.246094 8.011719 0.246094 Z M 8.011719 0.246094 " clip-rule="nonzero"/></clipPath><clipPath id="d8328e0532"><rect x="0" width="183" y="0" height="34"/></clipPath><clipPath id="f9ac039463"><path d="M 292.320312 114.238281 L 470.859375 114.238281 L 470.859375 147.359375 L 292.320312 147.359375 Z M 292.320312 114.238281 " clip-rule="nonzero"/></clipPath><clipPath id="71a2fe00f2"><path d="M 299.816406 114.238281 L 463.316406 114.238281 C 467.457031 114.238281 470.8125 117.59375 470.8125 121.734375 L 470.8125 139.863281 C 470.8125 144.003906 467.457031 147.359375 463.316406 147.359375 L 299.816406 147.359375 C 295.675781 147.359375 292.320312 144.003906 292.320312 139.863281 L 292.320312 121.734375 C 292.320312 117.59375 295.675781 114.238281 299.816406 114.238281 Z M 299.816406 114.238281 " clip-rule="nonzero"/></clipPath><clipPath id="3cfbbe5c3f"><path d="M 0.320312 0.238281 L 178.859375 0.238281 L 178.859375 33.359375 L 0.320312 33.359375 Z M 0.320312 0.238281 " clip-rule="nonzero"/></clipPath><clipPath id="cdbe82ff47"><path d="M 7.816406 0.238281 L 171.316406 0.238281 C 175.457031 0.238281 178.8125 3.59375 178.8125 7.734375 L 178.8125 25.863281 C 178.8125 30.003906 175.457031 33.359375 171.316406 33.359375 L 7.816406 33.359375 C 3.675781 33.359375 0.320312 30.003906 0.320312 25.863281 L 0.320312 7.734375 C 0.320312 3.59375 3.675781 0.238281 7.816406 0.238281 Z M 7.816406 0.238281 " clip-rule="nonzero"/></clipPath><clipPath id="5447479c06"><rect x="0" width="179" y="0" height="34"/></clipPath><clipPath id="ef4756912f"><path d="M 55.496094 39.882812 L 233.992188 39.882812 L 233.992188 86.085938 L 55.496094 86.085938 Z M 55.496094 39.882812 " clip-rule="nonzero"/></clipPath><clipPath id="afea330275"><path d="M 62.992188 39.882812 L 226.488281 39.882812 C 230.628906 39.882812 233.984375 43.238281 233.984375 47.378906 L 233.984375 78.589844 C 233.984375 82.730469 230.628906 86.085938 226.488281 86.085938 L 62.992188 86.085938 C 58.851562 86.085938 55.496094 82.730469 55.496094 78.589844 L 55.496094 47.378906 C 55.496094 43.238281 58.851562 39.882812 62.992188 39.882812 Z M 62.992188 39.882812 " clip-rule="nonzero"/></clipPath><clipPath id="bd20000fc4"><path d="M 0.496094 0.882812 L 178.992188 0.882812 L 178.992188 47.085938 L 0.496094 47.085938 Z M 0.496094 0.882812 " clip-rule="nonzero"/></clipPath><clipPath id="54c80681c5"><path d="M 7.992188 0.882812 L 171.488281 0.882812 C 175.628906 0.882812 178.984375 4.238281 178.984375 8.378906 L 178.984375 39.589844 C 178.984375 43.730469 175.628906 47.085938 171.488281 47.085938 L 7.992188 47.085938 C 3.851562 47.085938 0.496094 43.730469 0.496094 39.589844 L 0.496094 8.378906 C 0.496094 4.238281 3.851562 0.882812 7.992188 0.882812 Z M 7.992188 0.882812 " clip-rule="nonzero"/></clipPath><clipPath id="861ed0be55"><rect x="0" width="179" y="0" height="48"/></clipPath><clipPath id="fe6864438a"><path d="M 0.953125 39.882812 L 50.769531 39.882812 L 50.769531 86.085938 L 0.953125 86.085938 Z M 0.953125 39.882812 " clip-rule="nonzero"/></clipPath><clipPath id="1c4f9b9511"><path d="M 8.449219 39.882812 L 43.183594 39.882812 C 47.324219 39.882812 50.679688 43.238281 50.679688 47.378906 L 50.679688 78.589844 C 50.679688 82.730469 47.324219 86.085938 43.183594 86.085938 L 8.449219 86.085938 C 4.308594 86.085938 0.953125 82.730469 0.953125 78.589844 L 0.953125 47.378906 C 0.953125 43.238281 4.308594 39.882812 8.449219 39.882812 Z M 8.449219 39.882812 " clip-rule="nonzero"/></clipPath><clipPath id="ec8e87cc8e"><path d="M 0.953125 0.882812 L 50.769531 0.882812 L 50.769531 47.085938 L 0.953125 47.085938 Z M 0.953125 0.882812 " clip-rule="nonzero"/></clipPath><clipPath id="ec01df6b2b"><path d="M 8.449219 0.882812 L 43.183594 0.882812 C 47.324219 0.882812 50.679688 4.238281 50.679688 8.378906 L 50.679688 39.589844 C 50.679688 43.730469 47.324219 47.085938 43.183594 47.085938 L 8.449219 47.085938 C 4.308594 47.085938 0.953125 43.730469 0.953125 39.589844 L 0.953125 8.378906 C 0.953125 4.238281 4.308594 0.882812 8.449219 0.882812 Z M 8.449219 0.882812 " clip-rule="nonzero"/></clipPath><clipPath id="2386994a55"><rect x="0" width="51" y="0" height="48"/></clipPath><clipPath id="d851bdce11"><path d="M 2.515625 283.742188 L 353.769531 283.742188 L 353.769531 316.863281 L 2.515625 316.863281 Z M 2.515625 283.742188 " clip-rule="nonzero"/></clipPath><clipPath id="b526e2ed8f"><path d="M 10.011719 283.742188 L 346.226562 283.742188 C 350.367188 283.742188 353.722656 287.097656 353.722656 291.238281 L 353.722656 309.367188 C 353.722656 313.503906 350.367188 316.863281 346.226562 316.863281 L 10.011719 316.863281 C 5.871094 316.863281 2.515625 313.503906 2.515625 309.367188 L 2.515625 291.238281 C 2.515625 287.097656 5.871094 283.742188 10.011719 283.742188 Z M 10.011719 283.742188 " clip-rule="nonzero"/></clipPath><clipPath id="f663650392"><path d="M 0.515625 0.742188 L 351.769531 0.742188 L 351.769531 33.863281 L 0.515625 33.863281 Z M 0.515625 0.742188 " clip-rule="nonzero"/></clipPath><clipPath id="0fe0360c75"><path d="M 8.011719 0.742188 L 344.226562 0.742188 C 348.367188 0.742188 351.722656 4.097656 351.722656 8.238281 L 351.722656 26.367188 C 351.722656 30.503906 348.367188 33.863281 344.226562 33.863281 L 8.011719 33.863281 C 3.871094 33.863281 0.515625 30.503906 0.515625 26.367188 L 0.515625 8.238281 C 0.515625 4.097656 3.871094 0.742188 8.011719 0.742188 Z M 8.011719 0.742188 " clip-rule="nonzero"/></clipPath><clipPath id="4512752fce"><rect x="0" width="352" y="0" height="34"/></clipPath><clipPath id="2ae0c562bf"><path d="M 362.859375 283.742188 L 414.738281 283.742188 L 414.738281 316.863281 L 362.859375 316.863281 Z M 362.859375 283.742188 " clip-rule="nonzero"/></clipPath><clipPath id="bd8d8fce71"><path d="M 370.355469 283.742188 L 407.234375 283.742188 C 411.375 283.742188 414.730469 287.097656 414.730469 291.238281 L 414.730469 309.367188 C 414.730469 313.503906 411.375 316.863281 407.234375 316.863281 L 370.355469 316.863281 C 366.214844 316.863281 362.859375 313.503906 362.859375 309.367188 L 362.859375 291.238281 C 362.859375 287.097656 366.214844 283.742188 370.355469 283.742188 Z M 370.355469 283.742188 " clip-rule="nonzero"/></clipPath><clipPath id="1839e2dbaa"><path d="M 0.859375 0.742188 L 52.738281 0.742188 L 52.738281 33.863281 L 0.859375 33.863281 Z M 0.859375 0.742188 " clip-rule="nonzero"/></clipPath><clipPath id="3dd308291f"><path d="M 8.355469 0.742188 L 45.234375 0.742188 C 49.375 0.742188 52.730469 4.097656 52.730469 8.238281 L 52.730469 26.367188 C 52.730469 30.503906 49.375 33.863281 45.234375 33.863281 L 8.355469 33.863281 C 4.214844 33.863281 0.859375 30.503906 0.859375 26.367188 L 0.859375 8.238281 C 0.859375 4.097656 4.214844 0.742188 8.355469 0.742188 Z M 8.355469 0.742188 " clip-rule="nonzero"/></clipPath><clipPath id="2d98f2bf35"><rect x="0" width="53" y="0" height="34"/></clipPath><clipPath id="480529ffda"><path d="M 424.476562 283.742188 L 512.195312 283.742188 L 512.195312 316.863281 L 424.476562 316.863281 Z M 424.476562 283.742188 " clip-rule="nonzero"/></clipPath><clipPath id="4378586640"><path d="M 431.972656 283.742188 L 504.570312 283.742188 C 508.710938 283.742188 512.066406 287.097656 512.066406 291.238281 L 512.066406 309.367188 C 512.066406 313.503906 508.710938 316.863281 504.570312 316.863281 L 431.972656 316.863281 C 427.832031 316.863281 424.476562 313.503906 424.476562 309.367188 L 424.476562 291.238281 C 424.476562 287.097656 427.832031 283.742188 431.972656 283.742188 Z M 431.972656 283.742188 " clip-rule="nonzero"/></clipPath><clipPath id="b88f259d9c"><path d="M 0.476562 0.742188 L 88.195312 0.742188 L 88.195312 33.863281 L 0.476562 33.863281 Z M 0.476562 0.742188 " clip-rule="nonzero"/></clipPath><clipPath id="34c94967e4"><path d="M 7.972656 0.742188 L 80.570312 0.742188 C 84.710938 0.742188 88.066406 4.097656 88.066406 8.238281 L 88.066406 26.367188 C 88.066406 30.503906 84.710938 33.863281 80.570312 33.863281 L 7.972656 33.863281 C 3.832031 33.863281 0.476562 30.503906 0.476562 26.367188 L 0.476562 8.238281 C 0.476562 4.097656 3.832031 0.742188 7.972656 0.742188 Z M 7.972656 0.742188 " clip-rule="nonzero"/></clipPath><clipPath id="b3f9c55fb1"><rect x="0" width="89" y="0" height="34"/></clipPath><clipPath id="1238f0be74"><path d="M 521.882812 283.742188 L 579.84375 283.742188 L 579.84375 316.863281 L 521.882812 316.863281 Z M 521.882812 283.742188 " clip-rule="nonzero"/></clipPath><clipPath id="212727a15f"><path d="M 529.378906 283.742188 L 572.3125 283.742188 C 576.453125 283.742188 579.808594 287.097656 579.808594 291.238281 L 579.808594 309.367188 C 579.808594 313.503906 576.453125 316.863281 572.3125 316.863281 L 529.378906 316.863281 C 525.238281 316.863281 521.882812 313.503906 521.882812 309.367188 L 521.882812 291.238281 C 521.882812 287.097656 525.238281 283.742188 529.378906 283.742188 Z M 529.378906 283.742188 " clip-rule="nonzero"/></clipPath><clipPath id="c52e3b2fe8"><path d="M 0.882812 0.742188 L 58.8125 0.742188 L 58.8125 33.863281 L 0.882812 33.863281 Z M 0.882812 0.742188 " clip-rule="nonzero"/></clipPath><clipPath id="ed04cfdbb8"><path d="M 8.378906 0.742188 L 51.3125 0.742188 C 55.453125 0.742188 58.808594 4.097656 58.808594 8.238281 L 58.808594 26.367188 C 58.808594 30.503906 55.453125 33.863281 51.3125 33.863281 L 8.378906 33.863281 C 4.238281 33.863281 0.882812 30.503906 0.882812 26.367188 L 0.882812 8.238281 C 0.882812 4.097656 4.238281 0.742188 8.378906 0.742188 Z M 8.378906 0.742188 " clip-rule="nonzero"/></clipPath><clipPath id="dc3bffaef9"><rect x="0" width="59" y="0" height="34"/></clipPath><clipPath id="7f932dbbf6"><path d="M 2.515625 323.496094 L 353.769531 323.496094 L 353.769531 356.617188 L 2.515625 356.617188 Z M 2.515625 323.496094 " clip-rule="nonzero"/></clipPath><clipPath id="8ca3bd215e"><path d="M 10.011719 323.496094 L 346.226562 323.496094 C 350.367188 323.496094 353.722656 326.855469 353.722656 330.992188 L 353.722656 349.121094 C 353.722656 353.261719 350.367188 356.617188 346.226562 356.617188 L 10.011719 356.617188 C 5.871094 356.617188 2.515625 353.261719 2.515625 349.121094 L 2.515625 330.992188 C 2.515625 326.855469 5.871094 323.496094 10.011719 323.496094 Z M 10.011719 323.496094 " clip-rule="nonzero"/></clipPath><clipPath id="f91bec335e"><path d="M 0.515625 0.496094 L 351.769531 0.496094 L 351.769531 33.617188 L 0.515625 33.617188 Z M 0.515625 0.496094 " clip-rule="nonzero"/></clipPath><clipPath id="3f648f5ea8"><path d="M 8.011719 0.496094 L 344.226562 0.496094 C 348.367188 0.496094 351.722656 3.855469 351.722656 7.992188 L 351.722656 26.121094 C 351.722656 30.261719 348.367188 33.617188 344.226562 33.617188 L 8.011719 33.617188 C 3.871094 33.617188 0.515625 30.261719 0.515625 26.121094 L 0.515625 7.992188 C 0.515625 3.855469 3.871094 0.496094 8.011719 0.496094 Z M 8.011719 0.496094 " clip-rule="nonzero"/></clipPath><clipPath id="3013a87eb2"><rect x="0" width="352" y="0" height="34"/></clipPath><clipPath id="55971172aa"><path d="M 362.859375 323.496094 L 414.738281 323.496094 L 414.738281 356.617188 L 362.859375 356.617188 Z M 362.859375 323.496094 " clip-rule="nonzero"/></clipPath><clipPath id="eb8d32cf98"><path d="M 370.355469 323.496094 L 407.234375 323.496094 C 411.375 323.496094 414.730469 326.855469 414.730469 330.992188 L 414.730469 349.121094 C 414.730469 353.261719 411.375 356.617188 407.234375 356.617188 L 370.355469 356.617188 C 366.214844 356.617188 362.859375 353.261719 362.859375 349.121094 L 362.859375 330.992188 C 362.859375 326.855469 366.214844 323.496094 370.355469 323.496094 Z M 370.355469 323.496094 " clip-rule="nonzero"/></clipPath><clipPath id="957ed724a1"><path d="M 0.859375 0.496094 L 52.738281 0.496094 L 52.738281 33.617188 L 0.859375 33.617188 Z M 0.859375 0.496094 " clip-rule="nonzero"/></clipPath><clipPath id="5aee3613dc"><path d="M 8.355469 0.496094 L 45.234375 0.496094 C 49.375 0.496094 52.730469 3.855469 52.730469 7.992188 L 52.730469 26.121094 C 52.730469 30.261719 49.375 33.617188 45.234375 33.617188 L 8.355469 33.617188 C 4.214844 33.617188 0.859375 30.261719 0.859375 26.121094 L 0.859375 7.992188 C 0.859375 3.855469 4.214844 0.496094 8.355469 0.496094 Z M 8.355469 0.496094 " clip-rule="nonzero"/></clipPath><clipPath id="f4518dc256"><rect x="0" width="53" y="0" height="34"/></clipPath><clipPath id="70567cd37e"><path d="M 424.476562 323.496094 L 512.195312 323.496094 L 512.195312 356.617188 L 424.476562 356.617188 Z M 424.476562 323.496094 " clip-rule="nonzero"/></clipPath><clipPath id="8373b50273"><path d="M 431.972656 323.496094 L 504.570312 323.496094 C 508.710938 323.496094 512.066406 326.855469 512.066406 330.992188 L 512.066406 349.121094 C 512.066406 353.261719 508.710938 356.617188 504.570312 356.617188 L 431.972656 356.617188 C 427.832031 356.617188 424.476562 353.261719 424.476562 349.121094 L 424.476562 330.992188 C 424.476562 326.855469 427.832031 323.496094 431.972656 323.496094 Z M 431.972656 323.496094 " clip-rule="nonzero"/></clipPath><clipPath id="ddadfb9576"><path d="M 0.476562 0.496094 L 88.195312 0.496094 L 88.195312 33.617188 L 0.476562 33.617188 Z M 0.476562 0.496094 " clip-rule="nonzero"/></clipPath><clipPath id="fa7690bc84"><path d="M 7.972656 0.496094 L 80.570312 0.496094 C 84.710938 0.496094 88.066406 3.855469 88.066406 7.992188 L 88.066406 26.121094 C 88.066406 30.261719 84.710938 33.617188 80.570312 33.617188 L 7.972656 33.617188 C 3.832031 33.617188 0.476562 30.261719 0.476562 26.121094 L 0.476562 7.992188 C 0.476562 3.855469 3.832031 0.496094 7.972656 0.496094 Z M 7.972656 0.496094 " clip-rule="nonzero"/></clipPath><clipPath id="7b03c604c0"><rect x="0" width="89" y="0" height="34"/></clipPath><clipPath id="da12bd778c"><path d="M 521.882812 323.496094 L 579.84375 323.496094 L 579.84375 356.617188 L 521.882812 356.617188 Z M 521.882812 323.496094 " clip-rule="nonzero"/></clipPath><clipPath id="857351e46b"><path d="M 529.378906 323.496094 L 572.3125 323.496094 C 576.453125 323.496094 579.808594 326.855469 579.808594 330.992188 L 579.808594 349.121094 C 579.808594 353.261719 576.453125 356.617188 572.3125 356.617188 L 529.378906 356.617188 C 525.238281 356.617188 521.882812 353.261719 521.882812 349.121094 L 521.882812 330.992188 C 521.882812 326.855469 525.238281 323.496094 529.378906 323.496094 Z M 529.378906 323.496094 " clip-rule="nonzero"/></clipPath><clipPath id="5d2431b701"><path d="M 0.882812 0.496094 L 58.8125 0.496094 L 58.8125 33.617188 L 0.882812 33.617188 Z M 0.882812 0.496094 " clip-rule="nonzero"/></clipPath><clipPath id="3462354494"><path d="M 8.378906 0.496094 L 51.3125 0.496094 C 55.453125 0.496094 58.808594 3.855469 58.808594 7.992188 L 58.808594 26.121094 C 58.808594 30.261719 55.453125 33.617188 51.3125 33.617188 L 8.378906 33.617188 C 4.238281 33.617188 0.882812 30.261719 0.882812 26.121094 L 0.882812 7.992188 C 0.882812 3.855469 4.238281 0.496094 8.378906 0.496094 Z M 8.378906 0.496094 " clip-rule="nonzero"/></clipPath><clipPath id="ef39e6381c"><rect x="0" width="59" y="0" height="34"/></clipPath><clipPath id="6d3c456888"><path d="M 362.859375 445.984375 L 580.710938 445.984375 L 580.710938 522.382812 L 362.859375 522.382812 Z M 362.859375 445.984375 " clip-rule="nonzero"/></clipPath><clipPath id="41e7b424d0"><path d="M 370.355469 445.984375 L 572.988281 445.984375 C 577.128906 445.984375 580.484375 449.34375 580.484375 453.480469 L 580.484375 514.886719 C 580.484375 519.027344 577.128906 522.382812 572.988281 522.382812 L 370.355469 522.382812 C 366.214844 522.382812 362.859375 519.027344 362.859375 514.886719 L 362.859375 453.480469 C 362.859375 449.34375 366.214844 445.984375 370.355469 445.984375 Z M 370.355469 445.984375 " clip-rule="nonzero"/></clipPath><clipPath id="b6c7df503c"><path d="M 0.859375 0.984375 L 218.53125 0.984375 L 218.53125 77.382812 L 0.859375 77.382812 Z M 0.859375 0.984375 " clip-rule="nonzero"/></clipPath><clipPath id="2f30fcdbe8"><path d="M 8.355469 0.984375 L 210.988281 0.984375 C 215.128906 0.984375 218.484375 4.34375 218.484375 8.480469 L 218.484375 69.886719 C 218.484375 74.027344 215.128906 77.382812 210.988281 77.382812 L 8.355469 77.382812 C 4.214844 77.382812 0.859375 74.027344 0.859375 69.886719 L 0.859375 8.480469 C 0.859375 4.34375 4.214844 0.984375 8.355469 0.984375 Z M 8.355469 0.984375 " clip-rule="nonzero"/></clipPath><clipPath id="c8ff7640fc"><rect x="0" width="219" y="0" height="78"/></clipPath><clipPath id="267749f4dd"><path d="M 3.335938 631.828125 L 581.550781 631.828125 L 581.550781 725.15625 L 3.335938 725.15625 Z M 3.335938 631.828125 " clip-rule="nonzero"/></clipPath><clipPath id="c56854c14a"><path d="M 10.832031 631.828125 L 573.808594 631.828125 C 577.949219 631.828125 581.304688 635.183594 581.304688 639.324219 L 581.304688 717.660156 C 581.304688 721.800781 577.949219 725.15625 573.808594 725.15625 L 10.832031 725.15625 C 6.691406 725.15625 3.335938 721.800781 3.335938 717.660156 L 3.335938 639.324219 C 3.335938 635.183594 6.691406 631.828125 10.832031 631.828125 Z M 10.832031 631.828125 " clip-rule="nonzero"/></clipPath><clipPath id="af62bc4aee"><path d="M 0.335938 0.828125 L 578.492188 0.828125 L 578.492188 94.15625 L 0.335938 94.15625 Z M 0.335938 0.828125 " clip-rule="nonzero"/></clipPath><clipPath id="4c8b3bd2b1"><path d="M 7.832031 0.828125 L 570.808594 0.828125 C 574.949219 0.828125 578.304688 4.183594 578.304688 8.324219 L 578.304688 86.660156 C 578.304688 90.800781 574.949219 94.15625 570.808594 94.15625 L 7.832031 94.15625 C 3.691406 94.15625 0.335938 90.800781 0.335938 86.660156 L 0.335938 8.324219 C 0.335938 4.183594 3.691406 0.828125 7.832031 0.828125 Z M 7.832031 0.828125 " clip-rule="nonzero"/></clipPath><clipPath id="c20188b15d"><rect x="0" width="579" y="0" height="95"/></clipPath><clipPath id="62b95ad543"><path d="M 2.515625 731.628906 L 199.386719 731.628906 L 199.386719 824.957031 L 2.515625 824.957031 Z M 2.515625 731.628906 " clip-rule="nonzero"/></clipPath><clipPath id="6da30377e1"><path d="M 10.011719 731.628906 L 191.617188 731.628906 C 195.757812 731.628906 199.113281 734.984375 199.113281 739.125 L 199.113281 817.460938 C 199.113281 821.601562 195.757812 824.957031 191.617188 824.957031 L 10.011719 824.957031 C 5.871094 824.957031 2.515625 821.601562 2.515625 817.460938 L 2.515625 739.125 C 2.515625 734.984375 5.871094 731.628906 10.011719 731.628906 Z M 10.011719 731.628906 " clip-rule="nonzero"/></clipPath><clipPath id="f515dd0555"><path d="M 0.515625 0.628906 L 197.273438 0.628906 L 197.273438 93.957031 L 0.515625 93.957031 Z M 0.515625 0.628906 " clip-rule="nonzero"/></clipPath><clipPath id="c547c3685a"><path d="M 8.011719 0.628906 L 189.617188 0.628906 C 193.757812 0.628906 197.113281 3.984375 197.113281 8.125 L 197.113281 86.460938 C 197.113281 90.601562 193.757812 93.957031 189.617188 93.957031 L 8.011719 93.957031 C 3.871094 93.957031 0.515625 90.601562 0.515625 86.460938 L 0.515625 8.125 C 0.515625 3.984375 3.871094 0.628906 8.011719 0.628906 Z M 8.011719 0.628906 " clip-rule="nonzero"/></clipPath><clipPath id="b45507c393"><rect x="0" width="198" y="0" height="94"/></clipPath><clipPath id="ed3b600a63"><path d="M 383.710938 731.628906 L 580.578125 731.628906 L 580.578125 824.957031 L 383.710938 824.957031 Z M 383.710938 731.628906 " clip-rule="nonzero"/></clipPath><clipPath id="85f242eb62"><path d="M 391.207031 731.628906 L 572.988281 731.628906 C 577.128906 731.628906 580.484375 734.984375 580.484375 739.125 L 580.484375 817.460938 C 580.484375 821.601562 577.128906 824.957031 572.988281 824.957031 L 391.207031 824.957031 C 387.066406 824.957031 383.710938 821.601562 383.710938 817.460938 L 383.710938 739.125 C 383.710938 734.984375 387.066406 731.628906 391.207031 731.628906 Z M 391.207031 731.628906 " clip-rule="nonzero"/></clipPath><clipPath id="d3ed6129f9"><path d="M 0.710938 0.628906 L 197.53125 0.628906 L 197.53125 93.957031 L 0.710938 93.957031 Z M 0.710938 0.628906 " clip-rule="nonzero"/></clipPath><clipPath id="f9aafe10ad"><path d="M 8.207031 0.628906 L 189.988281 0.628906 C 194.128906 0.628906 197.484375 3.984375 197.484375 8.125 L 197.484375 86.460938 C 197.484375 90.601562 194.128906 93.957031 189.988281 93.957031 L 8.207031 93.957031 C 4.066406 93.957031 0.710938 90.601562 0.710938 86.460938 L 0.710938 8.125 C 0.710938 3.984375 4.066406 0.628906 8.207031 0.628906 Z M 8.207031 0.628906 " clip-rule="nonzero"/></clipPath><clipPath id="e7e9404d01"><rect x="0" width="198" y="0" height="94"/></clipPath><clipPath id="53d28b340a"><path d="M 206.785156 731.628906 L 376.3125 731.628906 L 376.3125 824.957031 L 206.785156 824.957031 Z M 206.785156 731.628906 " clip-rule="nonzero"/></clipPath><clipPath id="04dc768999"><path d="M 214.28125 731.628906 L 368.71875 731.628906 C 372.855469 731.628906 376.214844 734.984375 376.214844 739.125 L 376.214844 817.460938 C 376.214844 821.601562 372.855469 824.957031 368.71875 824.957031 L 214.28125 824.957031 C 210.144531 824.957031 206.785156 821.601562 206.785156 817.460938 L 206.785156 739.125 C 206.785156 734.984375 210.144531 731.628906 214.28125 731.628906 Z M 214.28125 731.628906 " clip-rule="nonzero"/></clipPath><clipPath id="c03afd72ca"><path d="M 0.785156 0.628906 L 170.234375 0.628906 L 170.234375 93.957031 L 0.785156 93.957031 Z M 0.785156 0.628906 " clip-rule="nonzero"/></clipPath><clipPath id="9cff78aa28"><path d="M 8.28125 0.628906 L 162.71875 0.628906 C 166.855469 0.628906 170.214844 3.984375 170.214844 8.125 L 170.214844 86.460938 C 170.214844 90.601562 166.855469 93.957031 162.71875 93.957031 L 8.28125 93.957031 C 4.144531 93.957031 0.785156 90.601562 0.785156 86.460938 L 0.785156 8.125 C 0.785156 3.984375 4.144531 0.628906 8.28125 0.628906 Z M 8.28125 0.628906 " clip-rule="nonzero"/></clipPath><clipPath id="664f6bbf57"><rect x="0" width="171" y="0" height="94"/></clipPath><clipPath id="0b4f4c66b2"><path d="M 2.515625 364.863281 L 353.769531 364.863281 L 353.769531 397.984375 L 2.515625 397.984375 Z M 2.515625 364.863281 " clip-rule="nonzero"/></clipPath><clipPath id="ee7eecfc0f"><path d="M 10.011719 364.863281 L 346.226562 364.863281 C 350.367188 364.863281 353.722656 368.21875 353.722656 372.359375 L 353.722656 390.488281 C 353.722656 394.628906 350.367188 397.984375 346.226562 397.984375 L 10.011719 397.984375 C 5.871094 397.984375 2.515625 394.628906 2.515625 390.488281 L 2.515625 372.359375 C 2.515625 368.21875 5.871094 364.863281 10.011719 364.863281 Z M 10.011719 364.863281 " clip-rule="nonzero"/></clipPath><clipPath id="2e810f29a4"><path d="M 0.515625 0.863281 L 351.769531 0.863281 L 351.769531 33.984375 L 0.515625 33.984375 Z M 0.515625 0.863281 " clip-rule="nonzero"/></clipPath><clipPath id="f26da42cb7"><path d="M 8.011719 0.863281 L 344.226562 0.863281 C 348.367188 0.863281 351.722656 4.21875 351.722656 8.359375 L 351.722656 26.488281 C 351.722656 30.628906 348.367188 33.984375 344.226562 33.984375 L 8.011719 33.984375 C 3.871094 33.984375 0.515625 30.628906 0.515625 26.488281 L 0.515625 8.359375 C 0.515625 4.21875 3.871094 0.863281 8.011719 0.863281 Z M 8.011719 0.863281 " clip-rule="nonzero"/></clipPath><clipPath id="889cca9c6a"><rect x="0" width="352" y="0" height="34"/></clipPath><clipPath id="261f4b942e"><path d="M 362.859375 364.863281 L 414.738281 364.863281 L 414.738281 397.984375 L 362.859375 397.984375 Z M 362.859375 364.863281 " clip-rule="nonzero"/></clipPath><clipPath id="0baa48ff65"><path d="M 370.355469 364.863281 L 407.234375 364.863281 C 411.375 364.863281 414.730469 368.21875 414.730469 372.359375 L 414.730469 390.488281 C 414.730469 394.628906 411.375 397.984375 407.234375 397.984375 L 370.355469 397.984375 C 366.214844 397.984375 362.859375 394.628906 362.859375 390.488281 L 362.859375 372.359375 C 362.859375 368.21875 366.214844 364.863281 370.355469 364.863281 Z M 370.355469 364.863281 " clip-rule="nonzero"/></clipPath><clipPath id="45995a6b98"><path d="M 0.859375 0.863281 L 52.738281 0.863281 L 52.738281 33.984375 L 0.859375 33.984375 Z M 0.859375 0.863281 " clip-rule="nonzero"/></clipPath><clipPath id="03e1f83e26"><path d="M 8.355469 0.863281 L 45.234375 0.863281 C 49.375 0.863281 52.730469 4.21875 52.730469 8.359375 L 52.730469 26.488281 C 52.730469 30.628906 49.375 33.984375 45.234375 33.984375 L 8.355469 33.984375 C 4.214844 33.984375 0.859375 30.628906 0.859375 26.488281 L 0.859375 8.359375 C 0.859375 4.21875 4.214844 0.863281 8.355469 0.863281 Z M 8.355469 0.863281 " clip-rule="nonzero"/></clipPath><clipPath id="121ce4b3be"><rect x="0" width="53" y="0" height="34"/></clipPath><clipPath id="f453752037"><path d="M 424.476562 364.863281 L 512.195312 364.863281 L 512.195312 397.984375 L 424.476562 397.984375 Z M 424.476562 364.863281 " clip-rule="nonzero"/></clipPath><clipPath id="6a53ff5b4b"><path d="M 431.972656 364.863281 L 504.570312 364.863281 C 508.710938 364.863281 512.066406 368.21875 512.066406 372.359375 L 512.066406 390.488281 C 512.066406 394.628906 508.710938 397.984375 504.570312 397.984375 L 431.972656 397.984375 C 427.832031 397.984375 424.476562 394.628906 424.476562 390.488281 L 424.476562 372.359375 C 424.476562 368.21875 427.832031 364.863281 431.972656 364.863281 Z M 431.972656 364.863281 " clip-rule="nonzero"/></clipPath><clipPath id="ba9c80fdef"><path d="M 0.476562 0.863281 L 88.195312 0.863281 L 88.195312 33.984375 L 0.476562 33.984375 Z M 0.476562 0.863281 " clip-rule="nonzero"/></clipPath><clipPath id="926d61e2b4"><path d="M 7.972656 0.863281 L 80.570312 0.863281 C 84.710938 0.863281 88.066406 4.21875 88.066406 8.359375 L 88.066406 26.488281 C 88.066406 30.628906 84.710938 33.984375 80.570312 33.984375 L 7.972656 33.984375 C 3.832031 33.984375 0.476562 30.628906 0.476562 26.488281 L 0.476562 8.359375 C 0.476562 4.21875 3.832031 0.863281 7.972656 0.863281 Z M 7.972656 0.863281 " clip-rule="nonzero"/></clipPath><clipPath id="6164cfb810"><rect x="0" width="89" y="0" height="34"/></clipPath><clipPath id="530d10f73f"><path d="M 521.882812 364.863281 L 579.84375 364.863281 L 579.84375 397.984375 L 521.882812 397.984375 Z M 521.882812 364.863281 " clip-rule="nonzero"/></clipPath><clipPath id="bcf068917e"><path d="M 529.378906 364.863281 L 572.3125 364.863281 C 576.453125 364.863281 579.808594 368.21875 579.808594 372.359375 L 579.808594 390.488281 C 579.808594 394.628906 576.453125 397.984375 572.3125 397.984375 L 529.378906 397.984375 C 525.238281 397.984375 521.882812 394.628906 521.882812 390.488281 L 521.882812 372.359375 C 521.882812 368.21875 525.238281 364.863281 529.378906 364.863281 Z M 529.378906 364.863281 " clip-rule="nonzero"/></clipPath><clipPath id="2d477141d0"><path d="M 0.882812 0.863281 L 58.8125 0.863281 L 58.8125 33.984375 L 0.882812 33.984375 Z M 0.882812 0.863281 " clip-rule="nonzero"/></clipPath><clipPath id="e9a89d1311"><path d="M 8.378906 0.863281 L 51.3125 0.863281 C 55.453125 0.863281 58.808594 4.21875 58.808594 8.359375 L 58.808594 26.488281 C 58.808594 30.628906 55.453125 33.984375 51.3125 33.984375 L 8.378906 33.984375 C 4.238281 33.984375 0.882812 30.628906 0.882812 26.488281 L 0.882812 8.359375 C 0.882812 4.21875 4.238281 0.863281 8.378906 0.863281 Z M 8.378906 0.863281 " clip-rule="nonzero"/></clipPath><clipPath id="a00dcdde6a"><rect x="0" width="59" y="0" height="34"/></clipPath><clipPath id="ede9d614c7"><path d="M 2.515625 404.621094 L 353.769531 404.621094 L 353.769531 437.742188 L 2.515625 437.742188 Z M 2.515625 404.621094 " clip-rule="nonzero"/></clipPath><clipPath id="8e9dbee874"><path d="M 10.011719 404.621094 L 346.226562 404.621094 C 350.367188 404.621094 353.722656 407.976562 353.722656 412.117188 L 353.722656 430.246094 C 353.722656 434.382812 350.367188 437.742188 346.226562 437.742188 L 10.011719 437.742188 C 5.871094 437.742188 2.515625 434.382812 2.515625 430.246094 L 2.515625 412.117188 C 2.515625 407.976562 5.871094 404.621094 10.011719 404.621094 Z M 10.011719 404.621094 " clip-rule="nonzero"/></clipPath><clipPath id="0d1ed492ec"><path d="M 0.515625 0.621094 L 351.769531 0.621094 L 351.769531 33.742188 L 0.515625 33.742188 Z M 0.515625 0.621094 " clip-rule="nonzero"/></clipPath><clipPath id="4c9ecbd086"><path d="M 8.011719 0.621094 L 344.226562 0.621094 C 348.367188 0.621094 351.722656 3.976562 351.722656 8.117188 L 351.722656 26.246094 C 351.722656 30.382812 348.367188 33.742188 344.226562 33.742188 L 8.011719 33.742188 C 3.871094 33.742188 0.515625 30.382812 0.515625 26.246094 L 0.515625 8.117188 C 0.515625 3.976562 3.871094 0.621094 8.011719 0.621094 Z M 8.011719 0.621094 " clip-rule="nonzero"/></clipPath><clipPath id="a851757175"><rect x="0" width="352" y="0" height="34"/></clipPath><clipPath id="4eaa856dbf"><path d="M 362.859375 404.621094 L 414.738281 404.621094 L 414.738281 437.742188 L 362.859375 437.742188 Z M 362.859375 404.621094 " clip-rule="nonzero"/></clipPath><clipPath id="a0998d9d6b"><path d="M 370.355469 404.621094 L 407.234375 404.621094 C 411.375 404.621094 414.730469 407.976562 414.730469 412.117188 L 414.730469 430.246094 C 414.730469 434.382812 411.375 437.742188 407.234375 437.742188 L 370.355469 437.742188 C 366.214844 437.742188 362.859375 434.382812 362.859375 430.246094 L 362.859375 412.117188 C 362.859375 407.976562 366.214844 404.621094 370.355469 404.621094 Z M 370.355469 404.621094 " clip-rule="nonzero"/></clipPath><clipPath id="5ed8dfb1cf"><path d="M 0.859375 0.621094 L 52.738281 0.621094 L 52.738281 33.742188 L 0.859375 33.742188 Z M 0.859375 0.621094 " clip-rule="nonzero"/></clipPath><clipPath id="c33c6d7f12"><path d="M 8.355469 0.621094 L 45.234375 0.621094 C 49.375 0.621094 52.730469 3.976562 52.730469 8.117188 L 52.730469 26.246094 C 52.730469 30.382812 49.375 33.742188 45.234375 33.742188 L 8.355469 33.742188 C 4.214844 33.742188 0.859375 30.382812 0.859375 26.246094 L 0.859375 8.117188 C 0.859375 3.976562 4.214844 0.621094 8.355469 0.621094 Z M 8.355469 0.621094 " clip-rule="nonzero"/></clipPath><clipPath id="0b20019766"><rect x="0" width="53" y="0" height="34"/></clipPath><clipPath id="990c9b0e1d"><path d="M 424.476562 404.621094 L 512.195312 404.621094 L 512.195312 437.742188 L 424.476562 437.742188 Z M 424.476562 404.621094 " clip-rule="nonzero"/></clipPath><clipPath id="3a2bb5d9cf"><path d="M 431.972656 404.621094 L 504.570312 404.621094 C 508.710938 404.621094 512.066406 407.976562 512.066406 412.117188 L 512.066406 430.246094 C 512.066406 434.382812 508.710938 437.742188 504.570312 437.742188 L 431.972656 437.742188 C 427.832031 437.742188 424.476562 434.382812 424.476562 430.246094 L 424.476562 412.117188 C 424.476562 407.976562 427.832031 404.621094 431.972656 404.621094 Z M 431.972656 404.621094 " clip-rule="nonzero"/></clipPath><clipPath id="0d06de7c31"><path d="M 0.476562 0.621094 L 88.195312 0.621094 L 88.195312 33.742188 L 0.476562 33.742188 Z M 0.476562 0.621094 " clip-rule="nonzero"/></clipPath><clipPath id="957c30a810"><path d="M 7.972656 0.621094 L 80.570312 0.621094 C 84.710938 0.621094 88.066406 3.976562 88.066406 8.117188 L 88.066406 26.246094 C 88.066406 30.382812 84.710938 33.742188 80.570312 33.742188 L 7.972656 33.742188 C 3.832031 33.742188 0.476562 30.382812 0.476562 26.246094 L 0.476562 8.117188 C 0.476562 3.976562 3.832031 0.621094 7.972656 0.621094 Z M 7.972656 0.621094 " clip-rule="nonzero"/></clipPath><clipPath id="f9bbac6c1d"><rect x="0" width="89" y="0" height="34"/></clipPath><clipPath id="f90d87a695"><path d="M 521.882812 404.621094 L 579.84375 404.621094 L 579.84375 437.742188 L 521.882812 437.742188 Z M 521.882812 404.621094 " clip-rule="nonzero"/></clipPath><clipPath id="1f3af89819"><path d="M 529.378906 404.621094 L 572.3125 404.621094 C 576.453125 404.621094 579.808594 407.976562 579.808594 412.117188 L 579.808594 430.246094 C 579.808594 434.382812 576.453125 437.742188 572.3125 437.742188 L 529.378906 437.742188 C 525.238281 437.742188 521.882812 434.382812 521.882812 430.246094 L 521.882812 412.117188 C 521.882812 407.976562 525.238281 404.621094 529.378906 404.621094 Z M 529.378906 404.621094 " clip-rule="nonzero"/></clipPath><clipPath id="5c57480624"><path d="M 0.882812 0.621094 L 58.8125 0.621094 L 58.8125 33.742188 L 0.882812 33.742188 Z M 0.882812 0.621094 " clip-rule="nonzero"/></clipPath><clipPath id="76900554ff"><path d="M 8.378906 0.621094 L 51.3125 0.621094 C 55.453125 0.621094 58.808594 3.976562 58.808594 8.117188 L 58.808594 26.246094 C 58.808594 30.382812 55.453125 33.742188 51.3125 33.742188 L 8.378906 33.742188 C 4.238281 33.742188 0.882812 30.382812 0.882812 26.246094 L 0.882812 8.117188 C 0.882812 3.976562 4.238281 0.621094 8.378906 0.621094 Z M 8.378906 0.621094 " clip-rule="nonzero"/></clipPath><clipPath id="ce47844cf9"><rect x="0" width="59" y="0" height="34"/></clipPath><clipPath id="34beffa243"><rect x="0" width="582" y="0" height="826"/></clipPath></defs><g transform="matrix(1, 0, 0, 1, 6, 8)"><g clip-path="url(#34beffa243)"><g clip-path="url(#b9413fe9bb)"><g clip-path="url(#9f757fce7f)"><g><g clip-path="url(#5cd7ae9e77)"><g clip-path="url(#ff269d6b64)"><g clip-path="url(#1b539ff84d)"><path fill="currentColor" d="M 0.953125 0.5 L 179.492188 0.5 L 179.492188 33.621094 L 0.953125 33.621094 Z M 0.953125 0.5 " fill-opacity="1" fill-rule="nonzero"/></g></g></g></g></g></g><g clip-path="url(#69446973ea)"><g clip-path="url(#d3bc193dd8)"><g transform="matrix(1, 0, 0, 1, 344, 0)"><g clip-path="url(#aeb5956965)"><g clip-path="url(#85953911fb)"><g clip-path="url(#405cf955db)"><path fill="currentColor" d="M 0.0703125 0.5 L 178.605469 0.5 L 178.605469 33.621094 L 0.0703125 33.621094 Z M 0.0703125 0.5 " fill-opacity="1" fill-rule="nonzero"/></g></g></g></g></g></g><g clip-path="url(#c2749cfb73)"><g clip-path="url(#810d6ba214)"><g transform="matrix(1, 0, 0, 1, 529, 0)"><g clip-path="url(#d8bd4bc66c)"><g clip-path="url(#2bd509eb95)"><g clip-path="url(#36b25cce55)"><path fill="currentColor" d="M 0.40625 0.5 L 50.085938 0.5 L 50.085938 33.621094 L 0.40625 33.621094 Z M 0.40625 0.5 " fill-opacity="1" fill-rule="nonzero"/></g></g></g></g></g></g><g clip-path="url(#56a51c4235)"><g clip-path="url(#d3fc6069e2)"><g transform="matrix(1, 0, 0, 1, 2, 155)"><g clip-path="url(#4647c35e0c)"><g clip-path="url(#25778a3b60)"><g clip-path="url(#fe18c952f1)"><path fill="currentColor" d="M 0.515625 0.566406 L 280.890625 0.566406 L 280.890625 100.257812 L 0.515625 100.257812 Z M 0.515625 0.566406 " fill-opacity="1" fill-rule="nonzero"/></g></g></g></g></g></g><g clip-path="url(#cd04c80ef0)"><g clip-path="url(#0198db5ac6)"><g transform="matrix(1, 0, 0, 1, 292, 155)"><g clip-path="url(#7f7834881a)"><g clip-path="url(#f7534aa654)"><g clip-path="url(#8951f40691)"><path fill="currentColor" d="M 0.320312 0.566406 L 288.484375 0.566406 L 288.484375 100.257812 L 0.320312 100.257812 Z M 0.320312 0.566406 " fill-opacity="1" fill-rule="nonzero"/></g></g></g></g></g></g><g clip-path="url(#845bd93145)"><g clip-path="url(#c0e354498f)"><g transform="matrix(1, 0, 0, 1, 2, 114)"><g clip-path="url(#d8328e0532)"><g clip-path="url(#dd1dd6eb0d)"><g clip-path="url(#7c8dda02d3)"><path fill="currentColor" d="M 0.515625 0.246094 L 182.804688 0.246094 L 182.804688 33.367188 L 0.515625 33.367188 Z M 0.515625 0.246094 " fill-opacity="1" fill-rule="nonzero"/></g></g></g></g></g></g><g clip-path="url(#f9ac039463)"><g clip-path="url(#71a2fe00f2)"><g transform="matrix(1, 0, 0, 1, 292, 114)"><g clip-path="url(#5447479c06)"><g clip-path="url(#3cfbbe5c3f)"><g clip-path="url(#cdbe82ff47)"><path fill="currentColor" d="M 0.320312 0.238281 L 178.859375 0.238281 L 178.859375 33.359375 L 0.320312 33.359375 Z M 0.320312 0.238281 " fill-opacity="1" fill-rule="nonzero"/></g></g></g></g></g></g><g clip-path="url(#ef4756912f)"><g clip-path="url(#afea330275)"><g transform="matrix(1, 0, 0, 1, 55, 39)"><g clip-path="url(#861ed0be55)"><g clip-path="url(#bd20000fc4)"><g clip-path="url(#54c80681c5)"><path fill="currentColor" d="M 0.496094 0.882812 L 178.992188 0.882812 L 178.992188 47.085938 L 0.496094 47.085938 Z M 0.496094 0.882812 " fill-opacity="1" fill-rule="nonzero"/></g></g></g></g></g></g><g clip-path="url(#fe6864438a)"><g clip-path="url(#1c4f9b9511)"><g transform="matrix(1, 0, 0, 1, 0, 39)"><g clip-path="url(#2386994a55)"><g clip-path="url(#ec8e87cc8e)"><g clip-path="url(#ec01df6b2b)"><path fill="currentColor" d="M 0.953125 0.882812 L 50.769531 0.882812 L 50.769531 47.085938 L 0.953125 47.085938 Z M 0.953125 0.882812 " fill-opacity="1" fill-rule="nonzero"/></g></g></g></g></g></g><g clip-path="url(#d851bdce11)"><g clip-path="url(#b526e2ed8f)"><g transform="matrix(1, 0, 0, 1, 2, 283)"><g clip-path="url(#4512752fce)"><g clip-path="url(#f663650392)"><g clip-path="url(#0fe0360c75)"><path fill="currentColor" d="M 0.515625 0.742188 L 351.769531 0.742188 L 351.769531 33.863281 L 0.515625 33.863281 Z M 0.515625 0.742188 " fill-opacity="1" fill-rule="nonzero"/></g></g></g></g></g></g><g clip-path="url(#2ae0c562bf)"><g clip-path="url(#bd8d8fce71)"><g transform="matrix(1, 0, 0, 1, 362, 283)"><g clip-path="url(#2d98f2bf35)"><g clip-path="url(#1839e2dbaa)"><g clip-path="url(#3dd308291f)"><path fill="currentColor" d="M 0.859375 0.742188 L 52.738281 0.742188 L 52.738281 33.863281 L 0.859375 33.863281 Z M 0.859375 0.742188 " fill-opacity="1" fill-rule="nonzero"/></g></g></g></g></g></g><g clip-path="url(#480529ffda)"><g clip-path="url(#4378586640)"><g transform="matrix(1, 0, 0, 1, 424, 283)"><g clip-path="url(#b3f9c55fb1)"><g clip-path="url(#b88f259d9c)"><g clip-path="url(#34c94967e4)"><path fill="currentColor" d="M 0.476562 0.742188 L 88.066406 0.742188 L 88.066406 33.863281 L 0.476562 33.863281 Z M 0.476562 0.742188 " fill-opacity="1" fill-rule="nonzero"/></g></g></g></g></g></g><g clip-path="url(#1238f0be74)"><g clip-path="url(#212727a15f)"><g transform="matrix(1, 0, 0, 1, 521, 283)"><g clip-path="url(#dc3bffaef9)"><g clip-path="url(#c52e3b2fe8)"><g clip-path="url(#ed04cfdbb8)"><path fill="currentColor" d="M 0.882812 0.742188 L 58.84375 0.742188 L 58.84375 33.863281 L 0.882812 33.863281 Z M 0.882812 0.742188 " fill-opacity="1" fill-rule="nonzero"/></g></g></g></g></g></g><g clip-path="url(#7f932dbbf6)"><g clip-path="url(#8ca3bd215e)"><g transform="matrix(1, 0, 0, 1, 2, 323)"><g clip-path="url(#3013a87eb2)"><g clip-path="url(#f91bec335e)"><g clip-path="url(#3f648f5ea8)"><path fill="currentColor" d="M 0.515625 0.496094 L 351.769531 0.496094 L 351.769531 33.617188 L 0.515625 33.617188 Z M 0.515625 0.496094 " fill-opacity="1" fill-rule="nonzero"/></g></g></g></g></g></g><g clip-path="url(#55971172aa)"><g clip-path="url(#eb8d32cf98)"><g transform="matrix(1, 0, 0, 1, 362, 323)"><g clip-path="url(#f4518dc256)"><g clip-path="url(#957ed724a1)"><g clip-path="url(#5aee3613dc)"><path fill="currentColor" d="M 0.859375 0.496094 L 52.738281 0.496094 L 52.738281 33.617188 L 0.859375 33.617188 Z M 0.859375 0.496094 " fill-opacity="1" fill-rule="nonzero"/></g></g></g></g></g></g><g clip-path="url(#70567cd37e)"><g clip-path="url(#8373b50273)"><g transform="matrix(1, 0, 0, 1, 424, 323)"><g clip-path="url(#7b03c604c0)"><g clip-path="url(#ddadfb9576)"><g clip-path="url(#fa7690bc84)"><path fill="currentColor" d="M 0.476562 0.496094 L 88.066406 0.496094 L 88.066406 33.617188 L 0.476562 33.617188 Z M 0.476562 0.496094 " fill-opacity="1" fill-rule="nonzero"/></g></g></g></g></g></g><g clip-path="url(#da12bd778c)"><g clip-path="url(#857351e46b)"><g transform="matrix(1, 0, 0, 1, 521, 323)"><g clip-path="url(#ef39e6381c)"><g clip-path="url(#5d2431b701)"><g clip-path="url(#3462354494)"><path fill="currentColor" d="M 0.882812 0.496094 L 58.84375 0.496094 L 58.84375 33.617188 L 0.882812 33.617188 Z M 0.882812 0.496094 " fill-opacity="1" fill-rule="nonzero"/></g></g></g></g></g></g><g clip-path="url(#6d3c456888)"><g clip-path="url(#41e7b424d0)"><g transform="matrix(1, 0, 0, 1, 362, 445)"><g clip-path="url(#c8ff7640fc)"><g clip-path="url(#b6c7df503c)"><g clip-path="url(#2f30fcdbe8)"><path fill="currentColor" d="M 0.859375 0.984375 L 218.410156 0.984375 L 218.410156 77.382812 L 0.859375 77.382812 Z M 0.859375 0.984375 " fill-opacity="1" fill-rule="nonzero"/></g></g></g></g></g></g><g clip-path="url(#267749f4dd)"><g clip-path="url(#c56854c14a)"><g transform="matrix(1, 0, 0, 1, 3, 631)"><g clip-path="url(#c20188b15d)"><g clip-path="url(#af62bc4aee)"><g clip-path="url(#4c8b3bd2b1)"><path fill="currentColor" d="M 0.335938 0.828125 L 578.1875 0.828125 L 578.1875 94.15625 L 0.335938 94.15625 Z M 0.335938 0.828125 " fill-opacity="1" fill-rule="nonzero"/></g></g></g></g></g></g><g clip-path="url(#62b95ad543)"><g clip-path="url(#6da30377e1)"><g transform="matrix(1, 0, 0, 1, 2, 731)"><g clip-path="url(#b45507c393)"><g clip-path="url(#f515dd0555)"><g clip-path="url(#c547c3685a)"><path fill="currentColor" d="M 0.515625 0.628906 L 197.019531 0.628906 L 197.019531 93.957031 L 0.515625 93.957031 Z M 0.515625 0.628906 " fill-opacity="1" fill-rule="nonzero"/></g></g></g></g></g></g><g clip-path="url(#ed3b600a63)"><g clip-path="url(#85f242eb62)"><g transform="matrix(1, 0, 0, 1, 383, 731)"><g clip-path="url(#e7e9404d01)"><g clip-path="url(#d3ed6129f9)"><g clip-path="url(#f9aafe10ad)"><path fill="currentColor" d="M 0.710938 0.628906 L 197.578125 0.628906 L 197.578125 93.957031 L 0.710938 93.957031 Z M 0.710938 0.628906 " fill-opacity="1" fill-rule="nonzero"/></g></g></g></g></g></g><g clip-path="url(#53d28b340a)"><g clip-path="url(#04dc768999)"><g transform="matrix(1, 0, 0, 1, 206, 731)"><g clip-path="url(#664f6bbf57)"><g clip-path="url(#c03afd72ca)"><g clip-path="url(#9cff78aa28)"><path fill="currentColor" d="M 0.785156 0.628906 L 170.3125 0.628906 L 170.3125 93.957031 L 0.785156 93.957031 Z M 0.785156 0.628906 " fill-opacity="1" fill-rule="nonzero"/></g></g></g></g></g></g><g clip-path="url(#0b4f4c66b2)"><g clip-path="url(#ee7eecfc0f)"><g transform="matrix(1, 0, 0, 1, 2, 364)"><g clip-path="url(#889cca9c6a)"><g clip-path="url(#2e810f29a4)"><g clip-path="url(#f26da42cb7)"><path fill="currentColor" d="M 0.515625 0.863281 L 351.769531 0.863281 L 351.769531 33.984375 L 0.515625 33.984375 Z M 0.515625 0.863281 " fill-opacity="1" fill-rule="nonzero"/></g></g></g></g></g></g><g clip-path="url(#261f4b942e)"><g clip-path="url(#0baa48ff65)"><g transform="matrix(1, 0, 0, 1, 362, 364)"><g clip-path="url(#121ce4b3be)"><g clip-path="url(#45995a6b98)"><g clip-path="url(#03e1f83e26)"><path fill="currentColor" d="M 0.859375 0.863281 L 52.738281 0.863281 L 52.738281 33.984375 L 0.859375 33.984375 Z M 0.859375 0.863281 " fill-opacity="1" fill-rule="nonzero"/></g></g></g></g></g></g><g clip-path="url(#f453752037)"><g clip-path="url(#6a53ff5b4b)"><g transform="matrix(1, 0, 0, 1, 424, 364)"><g clip-path="url(#6164cfb810)"><g clip-path="url(#ba9c80fdef)"><g clip-path="url(#926d61e2b4)"><path fill="currentColor" d="M 0.476562 0.863281 L 88.066406 0.863281 L 88.066406 33.984375 L 0.476562 33.984375 Z M 0.476562 0.863281 " fill-opacity="1" fill-rule="nonzero"/></g></g></g></g></g></g><g clip-path="url(#530d10f73f)"><g clip-path="url(#bcf068917e)"><g transform="matrix(1, 0, 0, 1, 521, 364)"><g clip-path="url(#a00dcdde6a)"><g clip-path="url(#2d477141d0)"><g clip-path="url(#e9a89d1311)"><path fill="currentColor" d="M 0.882812 0.863281 L 58.84375 0.863281 L 58.84375 33.984375 L 0.882812 33.984375 Z M 0.882812 0.863281 " fill-opacity="1" fill-rule="nonzero"/></g></g></g></g></g></g><g clip-path="url(#ede9d614c7)"><g clip-path="url(#8e9dbee874)"><g transform="matrix(1, 0, 0, 1, 2, 404)"><g clip-path="url(#a851757175)"><g clip-path="url(#0d1ed492ec)"><g clip-path="url(#4c9ecbd086)"><path fill="currentColor" d="M 0.515625 0.621094 L 351.769531 0.621094 L 351.769531 33.742188 L 0.515625 33.742188 Z M 0.515625 0.621094 " fill-opacity="1" fill-rule="nonzero"/></g></g></g></g></g></g><g clip-path="url(#4eaa856dbf)"><g clip-path="url(#a0998d9d6b)"><g transform="matrix(1, 0, 0, 1, 362, 404)"><g clip-path="url(#0b20019766)"><g clip-path="url(#5ed8dfb1cf)"><g clip-path="url(#c33c6d7f12)"><path fill="currentColor" d="M 0.859375 0.621094 L 52.738281 0.621094 L 52.738281 33.742188 L 0.859375 33.742188 Z M 0.859375 0.621094 " fill-opacity="1" fill-rule="nonzero"/></g></g></g></g></g></g><g clip-path="url(#990c9b0e1d)"><g clip-path="url(#3a2bb5d9cf)"><g transform="matrix(1, 0, 0, 1, 424, 404)"><g clip-path="url(#f9bbac6c1d)"><g clip-path="url(#0d06de7c31)"><g clip-path="url(#957c30a810)"><path fill="currentColor" d="M 0.476562 0.621094 L 88.066406 0.621094 L 88.066406 33.742188 L 0.476562 33.742188 Z M 0.476562 0.621094 " fill-opacity="1" fill-rule="nonzero"/></g></g></g></g></g></g><g clip-path="url(#f90d87a695)"><g clip-path="url(#1f3af89819)"><g transform="matrix(1, 0, 0, 1, 521, 404)"><g clip-path="url(#ce47844cf9)"><g clip-path="url(#5c57480624)"><g clip-path="url(#76900554ff)"><path fill="currentColor" d="M 0.882812 0.621094 L 58.84375 0.621094 L 58.84375 33.742188 L 0.882812 33.742188 Z M 0.882812 0.621094 " fill-opacity="1" fill-rule="nonzero"/></g></g></g></g></g></g></g></g></svg>